<svg xmlns="http://www.w3.org/2000/svg" width="277.402" height="189.802" viewBox="0 0 277.402 189.802">
    <defs>
        <style>
            .cls-1{fill:#e0e0e0}
        </style>
    </defs>
    <g id="_5ce2952a7e30fbd8d6210a77_noun_Quote_1942327" data-name="5ce2952a7e30fbd8d6210a77_noun_Quote_1942327" transform="translate(-10 -22)">
        <path id="Path_3015" d="M163.5 22H61.3a7.322 7.322 0 0 0-7.3 7.3v102.2a7.322 7.322 0 0 0 7.3 7.3H127v7.3a21.965 21.965 0 0 1-21.9 21.9H90.5a7.322 7.322 0 0 0-7.3 7.3v29.2a7.322 7.322 0 0 0 7.3 7.3h14.6c33.215 0 65.7-32.485 65.7-65.7V29.3a7.322 7.322 0 0 0-7.3-7.3z" class="cls-1" data-name="Path 3015" transform="translate(116.601)"/>
        <path id="Path_3016" d="M119.5 22H17.3a7.322 7.322 0 0 0-7.3 7.3v102.2a7.322 7.322 0 0 0 7.3 7.3H83v7.3A21.965 21.965 0 0 1 61.1 168H46.5a7.322 7.322 0 0 0-7.3 7.3v29.2a7.322 7.322 0 0 0 7.3 7.3h14.6c33.215 0 65.7-32.485 65.7-65.7V29.3a7.322 7.322 0 0 0-7.3-7.3z" class="cls-1" data-name="Path 3016"/>
    </g>
</svg>
