<svg id="Layer_1" data-name="Layer 1" xmlns="http://www.w3.org/2000/svg" viewBox="0 0 111.53 111.54"><defs><style>.cls-1{fill:#ef9b35;}</style></defs><title>new</title><path class="cls-1" d="M36.38,69a2.18,2.18,0,0,0-3.1,0L8.49,93.75a2.19,2.19,0,1,0,3.1,3.09L36.38,72.05A2.17,2.17,0,0,0,36.38,69Z"/><path class="cls-1" d="M39.48,75.15,14.69,99.94a2.19,2.19,0,0,0,3.1,3.1L42.58,78.25a2.19,2.19,0,1,0-3.1-3.1Z"/><path class="cls-1" d="M79.76,64.28,68.16,52.67l26.6-26.6H100a2.18,2.18,0,0,0,1.55-.64l9.3-9.29a2.2,2.2,0,0,0,0-3.1L98.5.64a2.2,2.2,0,0,0-3.1,0l-9.3,9.3a2.2,2.2,0,0,0-.64,1.55v5.29L58.86,43.37l-11.6-11.6A24.1,24.1,0,0,0,17.83,1.14,2.2,2.2,0,0,0,16.3,2.69a2.22,2.22,0,0,0,.57,2.11L25.1,13l-2.56,9.53L13,25.1,4.79,16.88a2.18,2.18,0,0,0-3.65,1A24.08,24.08,0,0,0,31.76,47.26L43.37,58.87l-2.88,2.88a13.11,13.11,0,0,0-15,2.56L3.84,86a13.17,13.17,0,0,0,0,18.59l3.1,3.1a13.15,13.15,0,0,0,18.59,0L47.22,86a13.12,13.12,0,0,0,2.56-15l2.88-2.87,11.61,11.6A24.1,24.1,0,0,0,93.69,110.4a2.19,2.19,0,0,0,1-3.66l-8.22-8.22L89,89l9.53-2.55,8.22,8.22a2.19,2.19,0,0,0,3.66-1A24.09,24.09,0,0,0,79.76,64.28ZM33.88,43.18a2.2,2.2,0,0,0-2.35-.49A19.71,19.71,0,0,1,4.67,23l6.14,6.14a2.21,2.21,0,0,0,2.12.57l12-3.21a2.2,2.2,0,0,0,1.55-1.55l3.21-12a2.21,2.21,0,0,0-.57-2.12L23,4.68A19.69,19.69,0,0,1,42.7,31.5c-.56,1.35-.56,1.35,7.54,9.45l5.52,5.52-9.29,9.3ZM89.2,19.23a2.18,2.18,0,0,0,.64-1.55V12.4L97,5.29l9.29,9.3-7.1,7.1H93.85a2.2,2.2,0,0,0-1.55.64L47.23,67.41l-3.1-3.1ZM44.12,82.9,22.43,104.59a9,9,0,0,1-12.39,0l-3.1-3.1a8.78,8.78,0,0,1,0-12.4L28.63,67.41a8.76,8.76,0,0,1,12.4,0l3.09,3.09a8.76,8.76,0,0,1,0,12.4Zm62.73,5.68-6.14-6.14a2.16,2.16,0,0,0-2.11-.56l-12,3.2a2.21,2.21,0,0,0-1.54,1.55l-3.21,12a2.16,2.16,0,0,0,.57,2.12l6.13,6.14A19.7,19.7,0,0,1,68.84,80a2.18,2.18,0,0,0-.49-2.34L55.76,65.07l9.3-9.3L77.65,68.36a2.16,2.16,0,0,0,2.34.49,19.71,19.71,0,0,1,26.86,19.73Z"/></svg>